<svg width="39" height="40" viewBox="0 0 39 40" fill="none" xmlns="http://www.w3.org/2000/svg">
<mask id="mask0_299_31" style="mask-type:alpha" maskUnits="userSpaceOnUse" x="0" y="0" width="39" height="40">
<rect x="0.0874023" y="0.95813" width="38.084" height="38.084" fill="#D9D9D9"/>
</mask>
<g mask="url(#mask0_299_31)">
<path d="M19.2882 35.8685C17.0667 35.8685 14.984 35.4453 13.0401 34.599C11.0962 33.7527 9.4036 32.6088 7.96222 31.1675C6.52085 29.7261 5.37701 28.0335 4.5307 26.0896C3.68439 24.1457 3.26123 22.063 3.26123 19.8414C3.26123 16.4562 4.21333 13.3883 6.11753 10.6378C8.02173 7.8873 10.5739 5.95666 13.774 4.84587C14.3558 4.6343 14.898 4.70703 15.4005 5.06406C15.903 5.4211 16.141 5.90376 16.1146 6.51205C16.0352 8.76006 16.3923 10.9023 17.1857 12.9387C17.9791 14.9752 19.1692 16.7868 20.7561 18.3736C22.3429 19.9605 24.1545 21.1506 26.191 21.944C28.2274 22.7374 30.3696 23.0945 32.6176 23.0151C33.3053 22.9887 33.8144 23.2201 34.145 23.7094C34.4756 24.1986 34.5351 24.7474 34.3235 25.3557C33.1598 28.5294 31.2093 31.0749 28.472 32.9923C25.7348 34.9097 22.6735 35.8685 19.2882 35.8685Z" fill="white"/>
</g>
</svg>
