<svg width="39" height="40" viewBox="0 0 39 40" fill="none" xmlns="http://www.w3.org/2000/svg">
<mask id="mask0_248_679" style="mask-type:alpha" maskUnits="userSpaceOnUse" x="0" y="0" width="39" height="40">
<rect x="0.0874023" y="0.958084" width="38.084" height="38.084" fill="#D9D9D9"/>
</mask>
<g mask="url(#mask0_248_679)">
<path d="M19.1295 8.89225C18.6799 8.89225 18.303 8.74018 17.9989 8.43604C17.6947 8.1319 17.5426 7.75502 17.5426 7.30542V4.13175C17.5426 3.68215 17.6947 3.30528 17.9989 3.00114C18.303 2.69699 18.6799 2.54492 19.1295 2.54492C19.5791 2.54492 19.956 2.69699 20.2601 3.00114C20.5642 3.30528 20.7163 3.68215 20.7163 4.13175V7.30542C20.7163 7.75502 20.5642 8.1319 20.2601 8.43604C19.956 8.74018 19.5791 8.89225 19.1295 8.89225ZM26.9843 12.1453C26.6934 11.8543 26.5479 11.4907 26.5479 11.0543C26.5479 10.6179 26.6934 10.2411 26.9843 9.9237L29.2059 7.66246C29.5232 7.34509 29.9001 7.18641 30.3365 7.18641C30.7729 7.18641 31.1497 7.34509 31.4671 7.66246C31.758 7.95338 31.9035 8.32364 31.9035 8.77324C31.9035 9.22284 31.758 9.5931 31.4671 9.88402L29.2059 12.1453C28.9149 12.4362 28.5447 12.5816 28.0951 12.5816C27.6455 12.5816 27.2752 12.4362 26.9843 12.1453ZM31.8241 21.5869C31.3745 21.5869 30.9977 21.4348 30.6935 21.1307C30.3894 20.8266 30.2373 20.4497 30.2373 20.0001C30.2373 19.5505 30.3894 19.1736 30.6935 18.8695C30.9977 18.5653 31.3745 18.4133 31.8241 18.4133H34.9978C35.4474 18.4133 35.8243 18.5653 36.1284 18.8695C36.4326 19.1736 36.5846 19.5505 36.5846 20.0001C36.5846 20.4497 36.4326 20.8266 36.1284 21.1307C35.8243 21.4348 35.4474 21.5869 34.9978 21.5869H31.8241ZM19.1295 37.4552C18.6799 37.4552 18.303 37.3032 17.9989 36.999C17.6947 36.6949 17.5426 36.318 17.5426 35.8684V32.6947C17.5426 32.2451 17.6947 31.8683 17.9989 31.5641C18.303 31.26 18.6799 31.1079 19.1295 31.1079C19.5791 31.1079 19.956 31.26 20.2601 31.5641C20.5642 31.8683 20.7163 32.2451 20.7163 32.6947V35.8684C20.7163 36.318 20.5642 36.6949 20.2601 36.999C19.956 37.3032 19.5791 37.4552 19.1295 37.4552ZM9.05309 12.1453L6.79185 9.9237C6.47449 9.60633 6.3158 9.22284 6.3158 8.77324C6.3158 8.32364 6.47449 7.95338 6.79185 7.66246C7.08277 7.37154 7.45303 7.22608 7.90264 7.22608C8.35224 7.22608 8.7225 7.37154 9.01342 7.66246L11.2747 9.9237C11.5656 10.2146 11.711 10.5849 11.711 11.0345C11.711 11.4841 11.5656 11.8543 11.2747 12.1453C10.9573 12.4362 10.587 12.5816 10.1639 12.5816C9.74072 12.5816 9.37046 12.4362 9.05309 12.1453ZM29.2059 32.3377L26.9843 30.0765C26.6934 29.7591 26.5479 29.3822 26.5479 28.9459C26.5479 28.5095 26.6934 28.1458 26.9843 27.8549C27.2752 27.564 27.6389 27.4185 28.0753 27.4185C28.5116 27.4185 28.8885 27.564 29.2059 27.8549L31.4671 30.0765C31.7845 30.3674 31.9365 30.7377 31.9233 31.1873C31.9101 31.6369 31.758 32.0203 31.4671 32.3377C31.1497 32.6551 30.7663 32.8138 30.3167 32.8138C29.867 32.8138 29.4968 32.6551 29.2059 32.3377ZM3.26115 21.5869C2.81155 21.5869 2.43467 21.4348 2.13053 21.1307C1.82639 20.8266 1.67432 20.4497 1.67432 20.0001C1.67432 19.5505 1.82639 19.1736 2.13053 18.8695C2.43467 18.5653 2.81155 18.4133 3.26115 18.4133H6.43481C6.88442 18.4133 7.26129 18.5653 7.56543 18.8695C7.86958 19.1736 8.02165 19.5505 8.02165 20.0001C8.02165 20.4497 7.86958 20.8266 7.56543 21.1307C7.26129 21.4348 6.88442 21.5869 6.43481 21.5869H3.26115ZM6.79185 32.3377C6.50093 32.0468 6.35547 31.6765 6.35547 31.2269C6.35547 30.7773 6.50093 30.4071 6.79185 30.1161L9.05309 27.8549C9.34401 27.564 9.70766 27.4185 10.144 27.4185C10.5804 27.4185 10.9573 27.564 11.2747 27.8549C11.592 28.1723 11.7507 28.5491 11.7507 28.9855C11.7507 29.4219 11.592 29.7988 11.2747 30.1161L9.05309 32.3377C8.73572 32.6551 8.35224 32.8138 7.90264 32.8138C7.45303 32.8138 7.08277 32.6551 6.79185 32.3377ZM19.1295 29.5211C16.4848 29.5211 14.2367 28.5954 12.3854 26.7441C10.5341 24.8928 9.60848 22.6448 9.60848 20.0001C9.60848 17.3554 10.5341 15.1073 12.3854 13.256C14.2367 11.4047 16.4848 10.4791 19.1295 10.4791C21.7742 10.4791 24.0222 11.4047 25.8735 13.256C27.7248 15.1073 28.6505 17.3554 28.6505 20.0001C28.6505 22.6448 27.7248 24.8928 25.8735 26.7441C24.0222 28.5954 21.7742 29.5211 19.1295 29.5211Z" fill="white"/>
</g>
</svg>
