<svg width="445" height="443" viewBox="0 0 445 443" fill="none" xmlns="http://www.w3.org/2000/svg">
<path d="M304.677 0L362.248 33.2383L132.601 430.998L75.0305 397.76L304.677 0Z" fill="#2859FF"/>
<path d="M444.824 210.509L411.585 268.08L76.6298 74.6932L109.868 17.1227L444.824 210.509Z" fill="#2859FF"/>
<path d="M387.446 338.38C373.813 361.994 355.662 382.691 334.03 399.29C312.398 415.889 287.708 428.064 261.371 435.121C235.033 442.179 207.564 443.979 180.53 440.42C153.497 436.861 127.429 428.012 103.816 414.379C80.2023 400.746 59.5053 382.595 42.9064 360.963C26.3076 339.331 14.132 314.641 7.07488 288.304C0.0177734 261.966 -1.78268 234.497 1.77633 207.463C5.33534 180.43 14.1841 154.362 27.8174 130.749L85.394 163.991C76.126 180.043 70.1106 197.764 67.6912 216.141C65.2718 234.518 66.4958 253.192 71.2932 271.096C76.0906 289.001 84.3676 305.785 95.6515 320.49C106.935 335.196 121.005 347.534 137.058 356.802C153.11 366.07 170.831 372.086 189.208 374.505C207.585 376.925 226.259 375.701 244.164 370.903C262.068 366.106 278.852 357.829 293.557 346.545C308.263 335.261 320.602 321.191 329.87 305.139L387.446 338.38Z" fill="#2859FF"/>
</svg>
