<svg width="1663" height="434" viewBox="0 0 1663 434" fill="none" xmlns="http://www.w3.org/2000/svg">
<path d="M158.059 433.892C129.522 433.892 103.227 426.962 79.1736 413.101C55.1206 398.832 35.9598 379.671 21.691 355.618C7.42229 331.157 0.287927 304.658 0.287927 276.121C0.287927 247.583 7.42229 221.288 21.691 197.235C35.9598 172.774 55.1206 153.613 79.1736 139.752C103.227 125.484 129.522 118.349 158.059 118.349C186.597 118.349 212.892 125.484 236.945 139.752C260.998 153.613 279.955 172.774 293.816 197.235C308.085 221.288 315.219 247.583 315.219 276.121V429H235.722V396.59C231.238 406.782 221.453 415.547 206.369 422.885C191.285 430.223 175.182 433.892 158.059 433.892ZM158.671 356.229C181.093 356.229 199.643 348.687 214.319 333.603C228.995 318.112 236.334 298.951 236.334 276.121C236.334 253.291 228.995 234.334 214.319 219.25C199.643 203.758 181.093 196.012 158.671 196.012C136.249 196.012 117.495 203.758 102.411 219.25C87.3272 234.334 79.7851 253.291 79.7851 276.121C79.7851 298.951 87.3272 318.112 102.411 333.603C117.495 348.687 136.249 356.229 158.671 356.229ZM596.708 268.171V429H517.211V268.171C517.211 243.303 512.726 225.161 503.758 213.746C495.196 201.923 481.335 196.012 462.174 196.012C443.014 196.012 428.949 201.923 419.98 213.746C411.418 225.161 407.138 243.303 407.138 268.171V429H327.641V268.171C327.641 218.434 339.871 181.132 364.332 156.263C388.792 130.987 421.407 118.349 462.174 118.349C502.942 118.349 535.556 130.987 560.017 156.263C584.478 181.132 596.708 218.434 596.708 268.171ZM763.652 433.892C735.115 433.892 708.616 426.962 684.155 413.101C660.102 398.832 640.941 379.671 626.673 355.618C612.811 331.157 605.881 304.658 605.881 276.121C605.881 247.583 612.811 221.288 626.673 197.235C640.941 172.774 660.102 153.613 684.155 139.752C708.616 125.484 735.115 118.349 763.652 118.349C799.528 118.349 831.327 129.153 859.049 150.76C887.179 171.959 905.932 199.273 915.309 232.703H830.919C823.989 221.288 814.612 212.319 802.789 205.796C791.374 199.273 778.533 196.012 764.264 196.012C741.842 196.012 723.088 203.758 708.004 219.25C692.92 234.334 685.378 253.291 685.378 276.121C685.378 298.951 692.92 318.112 708.004 333.603C723.088 348.687 741.842 356.229 764.264 356.229C777.717 356.229 789.948 353.376 800.955 347.668C811.962 341.553 821.135 333.196 828.473 322.596H914.697C904.913 355.21 886.16 381.913 858.438 402.705C830.715 423.496 799.12 433.892 763.652 433.892ZM1058.81 118.349C1099.58 118.349 1132.19 130.987 1156.65 156.263C1181.11 181.132 1193.34 218.434 1193.34 268.171V429H1113.85V268.171C1113.85 243.303 1109.36 225.161 1100.39 213.746C1091.83 201.923 1077.97 196.012 1058.81 196.012C1039.65 196.012 1025.58 201.923 1016.61 213.746C1008.05 225.161 1003.77 243.303 1003.77 268.171V429H924.276V0.938008H1003.77V133.637C1018.86 123.445 1037.2 118.349 1058.81 118.349ZM1360.29 118.349C1388.83 118.349 1415.12 125.484 1439.17 139.752C1463.63 153.613 1482.79 172.774 1496.66 197.235C1510.92 221.288 1518.06 247.583 1518.06 276.121C1518.06 304.658 1510.92 331.157 1496.66 355.618C1482.79 379.671 1463.63 398.832 1439.17 413.101C1415.12 426.962 1388.83 433.892 1360.29 433.892C1331.75 433.892 1305.25 426.962 1280.79 413.101C1256.74 398.832 1237.58 379.671 1223.31 355.618C1209.45 331.157 1202.52 304.658 1202.52 276.121C1202.52 247.583 1209.45 221.288 1223.31 197.235C1237.58 172.774 1256.74 153.613 1280.79 139.752C1305.25 125.484 1331.75 118.349 1360.29 118.349ZM1360.9 196.012C1338.48 196.012 1319.72 203.758 1304.64 219.25C1289.56 234.334 1282.01 253.291 1282.01 276.121C1282.01 298.951 1289.56 318.112 1304.64 333.603C1319.72 348.687 1338.48 356.229 1360.9 356.229C1383.32 356.229 1401.87 348.687 1416.55 333.603C1431.22 318.112 1438.56 298.951 1438.56 276.121C1438.56 253.291 1431.22 234.334 1416.55 219.25C1401.87 203.758 1383.32 196.012 1360.9 196.012ZM1527.48 268.171C1527.48 219.657 1539.51 183.17 1563.56 158.709C1587.61 134.249 1619.21 122.018 1658.34 122.018H1662.01V199.681H1658.96C1641.43 199.681 1628.38 205.185 1619.82 216.192C1611.26 227.199 1606.98 244.526 1606.98 268.171V429H1527.48V268.171Z" fill="white"/>
</svg>
