<svg width="2245" height="1677" viewBox="0 0 2245 1677" fill="none" xmlns="http://www.w3.org/2000/svg">
<path d="M721.851 1014.89C693.314 1014.89 667.019 1007.96 642.966 994.101C618.913 979.832 599.752 960.671 585.483 936.618C571.214 912.157 564.08 885.658 564.08 857.121C564.08 828.583 571.214 802.288 585.483 778.235C599.752 753.774 618.913 734.613 642.966 720.752C667.019 706.484 693.314 699.349 721.851 699.349C750.389 699.349 776.684 706.484 800.737 720.752C824.79 734.613 843.747 753.774 857.608 778.235C871.877 802.288 879.011 828.583 879.011 857.121V1010H799.514V977.59C795.03 987.782 785.245 996.547 770.161 1003.88C755.077 1011.22 738.974 1014.89 721.851 1014.89ZM722.463 937.229C744.885 937.229 763.435 929.687 778.111 914.603C792.787 899.112 800.126 879.951 800.126 857.121C800.126 834.291 792.787 815.334 778.111 800.25C763.435 784.758 744.885 777.012 722.463 777.012C700.041 777.012 681.287 784.758 666.203 800.25C651.119 815.334 643.577 834.291 643.577 857.121C643.577 879.951 651.119 899.112 666.203 914.603C681.287 929.687 700.041 937.229 722.463 937.229ZM1160.5 849.171V1010H1081V849.171C1081 824.303 1076.52 806.161 1067.55 794.746C1058.99 782.923 1045.13 777.012 1025.97 777.012C1006.81 777.012 992.741 782.923 983.772 794.746C975.21 806.161 970.93 824.303 970.93 849.171V1010H891.433V849.171C891.433 799.434 903.663 762.132 928.124 737.263C952.584 711.987 985.199 699.349 1025.97 699.349C1066.73 699.349 1099.35 711.987 1123.81 737.263C1148.27 762.132 1160.5 799.434 1160.5 849.171ZM1327.44 1014.89C1298.91 1014.89 1272.41 1007.96 1247.95 994.101C1223.89 979.832 1204.73 960.671 1190.46 936.618C1176.6 912.157 1169.67 885.658 1169.67 857.121C1169.67 828.583 1176.6 802.288 1190.46 778.235C1204.73 753.774 1223.89 734.613 1247.95 720.752C1272.41 706.484 1298.91 699.349 1327.44 699.349C1363.32 699.349 1395.12 710.153 1422.84 731.76C1450.97 752.959 1469.72 780.273 1479.1 813.703H1394.71C1387.78 802.288 1378.4 793.319 1366.58 786.796C1355.17 780.273 1342.32 777.012 1328.06 777.012C1305.63 777.012 1286.88 784.758 1271.8 800.25C1256.71 815.334 1249.17 834.291 1249.17 857.121C1249.17 879.951 1256.71 899.112 1271.8 914.603C1286.88 929.687 1305.63 937.229 1328.06 937.229C1341.51 937.229 1353.74 934.376 1364.75 928.668C1375.75 922.553 1384.93 914.196 1392.27 903.596H1478.49C1468.7 936.21 1449.95 962.913 1422.23 983.705C1394.51 1004.5 1362.91 1014.89 1327.44 1014.89ZM1622.6 699.349C1663.37 699.349 1695.98 711.987 1720.44 737.263C1744.91 762.132 1757.14 799.434 1757.14 849.171V1010H1677.64V849.171C1677.64 824.303 1673.15 806.161 1664.18 794.746C1655.62 782.923 1641.76 777.012 1622.6 777.012C1603.44 777.012 1589.38 782.923 1580.41 794.746C1571.85 806.161 1567.57 824.303 1567.57 849.171V1010H1488.07V581.938H1567.57V714.637C1582.65 704.445 1600.99 699.349 1622.6 699.349ZM1924.08 699.349C1952.62 699.349 1978.91 706.484 2002.97 720.752C2027.43 734.613 2046.59 753.774 2060.45 778.235C2074.72 802.288 2081.85 828.583 2081.85 857.121C2081.85 885.658 2074.72 912.157 2060.45 936.618C2046.59 960.671 2027.43 979.832 2002.97 994.101C1978.91 1007.96 1952.62 1014.89 1924.08 1014.89C1895.54 1014.89 1869.04 1007.96 1844.58 994.101C1820.53 979.832 1801.37 960.671 1787.1 936.618C1773.24 912.157 1766.31 885.658 1766.31 857.121C1766.31 828.583 1773.24 802.288 1787.1 778.235C1801.37 753.774 1820.53 734.613 1844.58 720.752C1869.04 706.484 1895.54 699.349 1924.08 699.349ZM1924.69 777.012C1902.27 777.012 1883.52 784.758 1868.43 800.25C1853.35 815.334 1845.81 834.291 1845.81 857.121C1845.81 879.951 1853.35 899.112 1868.43 914.603C1883.52 929.687 1902.27 937.229 1924.69 937.229C1947.11 937.229 1965.66 929.687 1980.34 914.603C1995.02 899.112 2002.35 879.951 2002.35 857.121C2002.35 834.291 1995.02 815.334 1980.34 800.25C1965.66 784.758 1947.11 777.012 1924.69 777.012ZM2091.27 849.171C2091.27 800.657 2103.3 764.17 2127.35 739.709C2151.4 715.249 2183 703.018 2222.14 703.018H2225.81V780.681H2222.75C2205.22 780.681 2192.17 786.185 2183.61 797.192C2175.05 808.199 2170.77 825.526 2170.77 849.171V1010H2091.27V849.171Z" fill="#2859FF"/>
<path d="M304.677 568L362.248 601.238L132.601 998.998L75.0305 965.76L304.677 568Z" fill="#2859FF"/>
<path d="M444.824 778.509L411.585 836.08L76.6298 642.693L109.868 585.123L444.824 778.509Z" fill="#2859FF"/>
<path d="M387.446 906.38C373.813 929.994 355.662 950.691 334.03 967.29C312.398 983.889 287.708 996.064 261.371 1003.12C235.033 1010.18 207.564 1011.98 180.53 1008.42C153.497 1004.86 127.429 996.012 103.816 982.379C80.2023 968.746 59.5053 950.595 42.9064 928.963C26.3076 907.331 14.132 882.641 7.07488 856.304C0.0177734 829.966 -1.78268 802.497 1.77633 775.463C5.33534 748.43 14.1841 722.362 27.8174 698.749L85.394 731.991C76.126 748.043 70.1106 765.764 67.6912 784.141C65.2718 802.518 66.4958 821.192 71.2932 839.096C76.0906 857.001 84.3676 873.785 95.6515 888.49C106.935 903.196 121.005 915.534 137.058 924.802C153.11 934.07 170.831 940.086 189.208 942.505C207.585 944.925 226.259 943.701 244.164 938.903C262.068 934.106 278.852 925.829 293.557 914.545C308.263 903.261 320.602 889.191 329.87 873.139L387.446 906.38Z" fill="#2859FF"/>
</svg>
