<svg width="39" height="40" viewBox="0 0 39 40" fill="none" xmlns="http://www.w3.org/2000/svg">
<mask id="mask0_251_74" style="mask-type:alpha" maskUnits="userSpaceOnUse" x="0" y="0" width="39" height="40">
<rect x="0.0273438" y="0.956665" width="38.0869" height="38.0869" fill="#D9D9D9"/>
</mask>
<g mask="url(#mask0_251_74)">
<path d="M1.61426 28.2522C1.61426 27.3529 1.84569 26.5264 2.30855 25.7726C2.77141 25.0188 3.38635 24.4435 4.15338 24.0468C5.79323 23.2268 7.45953 22.6119 9.15228 22.2019C10.845 21.792 12.5642 21.587 14.3099 21.587C16.0555 21.587 17.7747 21.792 19.4675 22.2019C21.1602 22.6119 22.8265 23.2268 24.4664 24.0468C25.2334 24.4435 25.8483 25.0188 26.3112 25.7726C26.7741 26.5264 27.0055 27.3529 27.0055 28.2522V29.5217C27.0055 30.3946 26.6947 31.1418 26.0732 31.7633C25.4516 32.3849 24.7044 32.6957 23.8316 32.6957H4.78816C3.91534 32.6957 3.16815 32.3849 2.54659 31.7633C1.92504 31.1418 1.61426 30.3946 1.61426 29.5217V28.2522ZM29.3066 32.6957C29.5975 32.2196 29.8157 31.7104 29.9612 31.1682C30.1067 30.626 30.1794 30.0772 30.1794 29.5217V27.9348C30.1794 26.771 29.8554 25.6536 29.2074 24.5824C28.5594 23.5112 27.6403 22.5921 26.4501 21.825C27.799 21.9837 29.0685 22.2548 30.2588 22.6383C31.449 23.0219 32.5598 23.4913 33.5914 24.0468C34.5435 24.5757 35.2709 25.1642 35.7734 25.8122C36.2759 26.4603 36.5272 27.1678 36.5272 27.9348V29.5217C36.5272 30.3946 36.2164 31.1418 35.5949 31.7633C34.9733 32.3849 34.2261 32.6957 33.3533 32.6957H29.3066ZM14.3099 20C12.5642 20 11.0699 19.3785 9.82674 18.1354C8.58362 16.8923 7.96207 15.3979 7.96207 13.6522C7.96207 11.9066 8.58362 10.4122 9.82674 9.16908C11.0699 7.92597 12.5642 7.30441 14.3099 7.30441C16.0555 7.30441 17.5499 7.92597 18.793 9.16908C20.0361 10.4122 20.6577 11.9066 20.6577 13.6522C20.6577 15.3979 20.0361 16.8923 18.793 18.1354C17.5499 19.3785 16.0555 20 14.3099 20ZM30.1794 13.6522C30.1794 15.3979 29.5578 16.8923 28.3147 18.1354C27.0716 19.3785 25.5772 20 23.8316 20C23.5407 20 23.1704 19.967 22.7207 19.9008C22.2711 19.8347 21.9008 19.762 21.6099 19.6826C22.324 18.8363 22.8728 17.8973 23.2563 16.8658C23.6398 15.8343 23.8316 14.7631 23.8316 13.6522C23.8316 12.5414 23.6398 11.4702 23.2563 10.4386C22.8728 9.40712 22.324 8.46818 21.6099 7.6218C21.9802 7.48956 22.3504 7.4036 22.7207 7.36392C23.091 7.32425 23.4613 7.30441 23.8316 7.30441C25.5772 7.30441 27.0716 7.92597 28.3147 9.16908C29.5578 10.4122 30.1794 11.9066 30.1794 13.6522Z" fill="white"/>
</g>
</svg>
